<?xml version="1.0" standalone="no"?>
<!DOCTYPE svg PUBLIC "-//W3C//DTD SVG 20010904//EN"
 "http://www.w3.org/TR/2001/REC-SVG-20010904/DTD/svg10.dtd">
<svg version="1.0" xmlns="http://www.w3.org/2000/svg"
 width="300.000000pt" height="300.000000pt" viewBox="0 0 300.000000 300.000000"
 preserveAspectRatio="xMidYMid meet">
<metadata>
Created by potrace 1.11, written by Peter Selinger 2001-2013
</metadata>
<g transform="translate(0.000000,300.000000) scale(0.100000,-0.100000)"
fill="#000000" stroke="none">
<path d="M873 2863 c-7 -19 0 -24 36 -25 l30 -1 -2 -1346 -2 -1346 -30 0 c-20
0 -31 -5 -33 -17 -3 -17 16 -18 282 -18 157 0 286 3 286 8 0 4 -17 21 -37 38
l-37 31 -1 562 c0 308 2 561 5 561 3 -1 12 -15 20 -33 16 -33 207 -404 290
-562 26 -49 91 -175 145 -280 54 -104 109 -209 122 -233 26 -49 23 -64 -14
-58 -19 4 -23 2 -19 -10 3 -9 6 -18 6 -20 0 -2 126 -4 280 -4 235 0 280 2 280
14 0 8 -15 19 -34 26 -60 19 -33 -29 -511 895 -43 83 -96 184 -118 225 -21 41
-82 158 -134 260 -53 102 -106 203 -119 226 l-23 40 131 200 c72 109 191 289
263 399 120 183 188 267 270 335 50 40 170 98 222 106 46 6 73 19 73 34 0 3
-124 6 -275 6 -247 -1 -276 -3 -292 -18 -16 -17 -13 -18 67 -19 47 0 104 0
128 1 23 1 42 -1 42 -4 0 -3 -44 -72 -98 -153 -54 -81 -120 -182 -147 -223
-27 -41 -159 -241 -293 -445 -135 -203 -247 -375 -249 -382 -3 -7 -8 -11 -12
-9 -9 6 -6 1146 3 1174 4 12 21 29 37 37 27 15 38 33 22 36 -5 1 -131 3 -282
4 -221 1 -274 -1 -278 -12z"/>
<path d="M10 2358 c0 -14 6 -19 23 -18 12 1 27 2 33 1 8 -1 11 -242 10 -848
l-1 -848 -33 -3 c-25 -3 -32 -8 -30 -20 3 -15 30 -17 280 -17 252 0 277 1 281
17 3 11 -3 18 -19 22 -47 12 -48 26 -49 438 0 257 3 389 10 390 5 2 85 3 178
3 154 -1 167 0 167 17 0 17 -13 18 -178 18 l-178 0 1 394 c0 373 1 395 19 415
11 12 25 21 31 21 14 0 28 27 17 34 -4 2 -132 4 -284 4 -269 0 -278 -1 -278
-20z"/>
<path d="M2430 2358 c0 -14 6 -19 23 -18 12 1 27 2 33 1 8 -1 11 -121 11 -416
l0 -415 -349 0 c-191 0 -348 -3 -348 -7 1 -27 27 -29 340 -29 179 1 332 0 341
-2 15 -3 16 -45 15 -415 l-1 -412 -33 -3 c-25 -3 -32 -8 -30 -20 3 -15 29 -17
278 -17 268 0 275 1 275 20 0 11 -7 20 -15 20 -8 0 -22 14 -30 30 -13 26 -15
136 -15 827 0 767 1 797 19 817 11 12 25 21 33 21 7 0 13 9 13 19 0 18 -11 19
-280 19 -270 -1 -280 -2 -280 -20z"/>
</g>
</svg>
